<?xml version="1.0" encoding="UTF-8"?>
<svg id="_图层_2" data-name="图层 2" xmlns="http://www.w3.org/2000/svg" viewBox="0 0 185.42 185.42">
  <defs>
    <style>
      .cls-1 {
        fill: #438ccb;
      }

      .cls-1, .cls-2, .cls-3, .cls-4, .cls-5 {
        stroke-width: 0px;
      }

      .cls-6 {
        isolation: isolate;
      }

      .cls-2 {
        fill: #71a4d7;
      }

      .cls-7 {
        fill: #fff;
        stroke: #d8e9f8;
        stroke-miterlimit: 10;
        stroke-width: 4px;
      }

      .cls-3 {
        fill: #d9c66d;
      }

      .cls-4 {
        fill: #38414a;
      }

      .cls-5 {
        fill: #2771b9;
      }
    </style>
  </defs>
  <g id="_图层_1-2" data-name="图层 1">
    <rect class="cls-7" x="2" y="2" width="181.42" height="181.42" rx="23.22" ry="23.22"/>
    <rect class="cls-5" x="24.68" y="23.37" width="136.06" height="20" rx="2.9" ry="2.9"/>
    <path class="cls-1" d="M27.58,61.53h54.34v20H27.58c-1.6,0-2.9-1.3-2.9-2.9v-14.19c0-1.6,1.3-2.9,2.9-2.9Z"/>
    <path class="cls-2" d="M27.58,99.68h52.01v20H27.58c-1.6,0-2.9-1.3-2.9-2.9v-14.19c0-1.6,1.3-2.9,2.9-2.9Z"/>
    <rect class="cls-3" x="24.68" y="137.84" width="105.34" height="20" rx="2.9" ry="2.9"/>
    <path class="cls-1" d="M104.44,61.53h53.39c1.6,0,2.9,1.3,2.9,2.9v14.19c0,1.6-1.3,2.9-2.9,2.9h-53.39v-20h0Z"/>
    <path class="cls-2" d="M104.44,99.68h53.39c1.6,0,2.9,1.3,2.9,2.9v14.19c0,1.6-1.3,2.9-2.9,2.9h-53.39v-20h0Z"/>
    <g class="cls-6">
      <path class="cls-4" d="M128.74,51.87l-27.2,37.78,28.47,39.68h-19.05l-18.84-27.2-18.94,27.2h-17.78l28.36-39.37-27.09-38.1h18.73l17.78,25.61,17.78-25.61h17.78Z"/>
    </g>
  </g>
</svg>